<svg width="81" height="81" viewBox="0 0 81 81" fill="none" xmlns="http://www.w3.org/2000/svg">
<path d="M72.9 0H8.1C5.95175 0 3.89148 0.85339 2.37243 2.37243C0.85339 3.89148 0 5.95175 0 8.1V56.7C0 58.8483 0.85339 60.9085 2.37243 62.4276C3.89148 63.9466 5.95175 64.8 8.1 64.8H32.4V72.9H20.25V81H60.75V72.9H48.6V64.8H72.9C75.0483 64.8 77.1085 63.9466 78.6276 62.4276C80.1466 60.9085 81 58.8483 81 56.7V8.1C81 5.95175 80.1466 3.89148 78.6276 2.37243C77.1085 0.85339 75.0483 0 72.9 0ZM72.9 56.7H8.1V8.1H72.9V56.7ZM59.7375 44.55C59.7375 46.4297 58.9908 48.2325 57.6616 49.5616C56.3325 50.8908 54.5297 51.6375 52.65 51.6375C50.7703 51.6375 48.9675 50.8908 47.6384 49.5616C46.3092 48.2325 45.5625 46.4297 45.5625 44.55L32.4 37.908C31.375 38.6971 30.1495 39.1833 28.8623 39.3116C27.5752 39.4399 26.2778 39.2052 25.1172 38.6339C23.9566 38.0627 22.9792 37.1779 22.2957 36.0797C21.6122 34.9815 21.2499 33.7138 21.2499 32.4203C21.2499 31.1267 21.6122 29.859 22.2957 28.7608C22.9792 27.6626 23.9566 26.7778 25.1172 26.2066C26.2778 25.6353 27.5752 25.4006 28.8623 25.5289C30.1495 25.6572 31.375 26.1434 32.4 26.9325L45.5625 20.25C45.5398 18.6249 46.07 17.0404 47.0662 15.7563C48.0623 14.4721 49.4652 13.5646 51.0449 13.1824C52.6245 12.8003 54.2871 12.9663 55.7601 13.6532C57.233 14.3401 58.4288 15.5071 59.1514 16.9629C59.8739 18.4187 60.0804 20.0767 59.7368 21.6652C59.3933 23.2537 58.5202 24.6783 57.2607 25.7054C56.0012 26.7326 54.43 27.3012 52.8049 27.3181C51.1798 27.335 49.5971 26.7992 48.3165 25.7985L35.2755 32.4L48.3165 38.9205C49.3618 38.0928 50.6205 37.5786 51.9464 37.4376C53.2723 37.2967 54.6109 37.5348 55.8069 38.1243C57.0028 38.7138 58.007 39.6305 58.7028 40.7679C59.3986 41.9053 59.7573 43.2168 59.7375 44.55Z" fill="white"/>
</svg>
