<svg width="97" height="96" viewBox="0 0 97 96" fill="none" xmlns="http://www.w3.org/2000/svg">
<path d="M57.3293 38.5377C54.3767 36.8536 50.9249 35.983 47.2733 36.2256C43.9784 36.4397 40.9402 37.5529 38.4012 39.2799L31.469 30.9162C26.006 34.9411 22.0121 40.8499 20.4716 47.7007L9.04635 46.0023C11.8848 31.6441 22.4543 19.7979 36.5612 15.4447M31.9397 47.2583C30.927 49.7132 30.442 52.4392 30.6275 55.2795C30.8271 58.291 31.7686 61.0884 33.252 63.4862C34.7212 65.8697 36.7324 67.8678 39.0859 69.3236L33.7512 78.7578C38.0589 81.3269 43.0797 82.8112 48.4572 82.8112C52.0374 82.8112 55.4465 82.1547 58.613 80.9701L62.3929 91.5032C59.098 92.7164 55.5891 93.5299 51.9233 93.8439C40.227 94.8715 29.2581 90.761 21.2419 83.3964M63.6339 63.5718C60.6955 68.2675 55.6176 71.5359 49.6696 71.9213M52.7791 58.3481C51.6951 59.4471 50.283 60.0465 48.8423 60.1321C47.1734 60.2321 45.4761 59.6469 44.1923 58.3909C43.037 57.2491 42.4379 55.7505 42.3951 54.2376C42.3523 52.6391 42.9371 51.0263 44.1495 49.7988C44.9626 48.971 45.961 48.4429 47.0023 48.1717C48.1434 47.8863 49.3416 47.9434 50.4541 48.3287C51.2814 48.6142 52.0659 49.0852 52.7221 49.756M60.3389 40.75C64.0047 44.0184 66.3155 48.7855 66.3155 54.0806H77.1845C77.1845 45.6027 73.5187 37.9811 67.6848 32.7288L74.9879 23.6943C82.4478 30.2739 87.4972 39.6225 88.4244 50.3126C88.8095 54.68 88.4814 58.9475 87.5257 62.9866M60.1678 13.7178C60.1678 20.1893 54.9248 25.4355 48.4572 25.4355C41.9896 25.4355 36.7466 20.1893 36.7466 13.7178C36.7466 7.24622 41.9896 2 48.4572 2C54.9248 2 60.1678 7.24622 60.1678 13.7178ZM95 74.0764C95 80.548 89.757 85.7942 83.2894 85.7942C76.8219 85.7942 71.5788 80.548 71.5788 74.0764C71.5788 67.6049 76.8219 62.3586 83.2894 62.3586C89.757 62.3586 95 67.6049 95 74.0764ZM25.4212 74.0764C25.4212 80.548 20.1781 85.7942 13.7106 85.7942C7.24299 85.7942 2 80.548 2 74.0764C2 67.6049 7.24299 62.3586 13.7106 62.3586C20.1781 62.3586 25.4212 67.6049 25.4212 74.0764Z" stroke="white" stroke-width="4" stroke-miterlimit="10"/>
</svg>
